<?xml version="1.0" encoding="utf-8"?><svg xmlns="http://www.w3.org/2000/svg" xmlns:xlink="http://www.w3.org/1999/xlink"><symbol viewBox="0 0 16 20" id="bag" xmlns="http://www.w3.org/2000/svg"><path d="M14 4H12C12 1.79 10.21 0 8 0C5.79 0 4 1.79 4 4H2C0.9 4 0 4.9 0 6V18C0 19.1 0.9 20 2 20H14C15.1 20 16 19.1 16 18V6C16 4.9 15.1 4 14 4ZM8 2C9.1 2 10 2.9 10 4H6C6 2.9 6.9 2 8 2ZM14 18H2V6H4V8C4 8.55 4.45 9 5 9C5.55 9 6 8.55 6 8V6H10V8C10 8.55 10.45 9 11 9C11.55 9 12 8.55 12 8V6H14V18Z"/></symbol><symbol viewBox="0 0 24 24" id="favorite" xmlns="http://www.w3.org/2000/svg"><path d="M11.2232 19.1147L11.2217 19.1134C8.62662 16.7602 6.55384 14.878 5.1178 13.1223C3.69324 11.3807 3 9.88574 3 8.32422C3 5.7965 4.97228 3.82422 7.5 3.82422C8.93721 3.82422 10.3322 4.49815 11.2386 5.56256L12 6.45662L12.7614 5.56256C13.6678 4.49815 15.0628 3.82422 16.5 3.82422C19.0277 3.82422 21 5.7965 21 8.32422C21 9.88575 20.3068 11.3807 18.882 13.1239C17.4459 14.8808 15.3734 16.7651 12.7786 19.1232C12.7782 19.1235 12.7778 19.1238 12.7775 19.1241L12.0026 19.8242L11.2232 19.1147Z" stroke-width="2"/></symbol><symbol viewBox="0 0 25 24" id="menu-icon" xmlns="http://www.w3.org/2000/svg"><path d="M3.5 18H21.5V16H3.5V18ZM3.5 13H21.5V11H3.5V13ZM3.5 6V8H21.5V6H3.5Z"/></symbol><symbol viewBox="0 0 16 18" id="person" xmlns="http://www.w3.org/2000/svg"><path d="M14.39 12.06C12.71 11.2 10.53 10.5 8 10.5C5.47 10.5 3.29 11.2 1.61 12.06C0.61 12.57 0 13.6 0 14.72V17.5H16V14.72C16 13.6 15.39 12.57 14.39 12.06ZM14 15.5H2V14.72C2 14.34 2.2 14 2.52 13.84C3.71 13.23 5.63 12.5 8 12.5C10.37 12.5 12.29 13.23 13.48 13.84C13.8 14 14 14.34 14 14.72V15.5Z"/><path d="M8 9.5C10.21 9.5 12 7.71 12 5.5C12 4.13 12 2 12 2C12 1.17 11.33 0.5 10.5 0.5C9.98 0.5 9.52 0.77 9.25 1.17C8.98 0.77 8.52 0.5 8 0.5C7.48 0.5 7.02 0.77 6.75 1.17C6.48 0.77 6.02 0.5 5.5 0.5C4.67 0.5 4 1.17 4 2C4 2 4 4.12 4 5.5C4 7.71 5.79 9.5 8 9.5ZM6 3H10V5.5C10 6.6 9.1 7.5 8 7.5C6.9 7.5 6 6.6 6 5.5V3Z"/></symbol><symbol viewBox="0 0 18 18" id="search" xmlns="http://www.w3.org/2000/svg"><path d="M12.7549 11.2539H11.9649L11.6849 10.9839C12.6649 9.84391 13.2549 8.36391 13.2549 6.75391C13.2549 3.16391 10.3449 0.253906 6.75488 0.253906C3.16488 0.253906 0.254883 3.16391 0.254883 6.75391C0.254883 10.3439 3.16488 13.2539 6.75488 13.2539C8.36488 13.2539 9.84488 12.6639 10.9849 11.6839L11.2549 11.9639V12.7539L16.2549 17.7439L17.7449 16.2539L12.7549 11.2539ZM6.75488 11.2539C4.26488 11.2539 2.25488 9.24391 2.25488 6.75391C2.25488 4.26391 4.26488 2.25391 6.75488 2.25391C9.24488 2.25391 11.2549 4.26391 11.2549 6.75391C11.2549 9.24391 9.24488 11.2539 6.75488 11.2539Z"/></symbol></svg>