<svg width="180" height="180" viewBox="0 0 180 180" fill="none" xmlns="http://www.w3.org/2000/svg">
<g clip-path="url(#clip0_3608_7943)">
<circle cx="90" cy="90" r="90" fill="#748C70"/>
<path fill-rule="evenodd" clip-rule="evenodd" d="M59.145 174.571C59.721 171.945 60.3959 169.374 61.1766 166.863C50.9266 154.478 50.9102 142.482 50.9102 136.52L50.9102 136.508C50.9562 120.076 55.915 104.769 68.7281 93.6542C81.4433 82.6241 101.272 76.2695 129.91 76.2695H154.998C157.207 76.2695 158.998 78.0604 158.998 80.2695V92.7695C158.998 92.846 158.995 92.9224 158.991 92.9987C157.396 120.795 149.729 140.635 136.853 153.516C123.939 166.436 106.372 171.77 86.2477 171.77H68.0739C67.6045 173.472 67.1834 175.21 66.8089 176.983C64.206 176.291 61.6495 175.485 59.145 174.571ZM77.0757 151.629C74.5648 155.395 72.4662 159.446 70.7465 163.77H86.2477C104.986 163.77 120.232 158.828 131.195 147.86C142.182 136.869 149.454 119.244 150.998 92.6541V84.2695H129.91C102.298 84.2695 84.6708 90.415 73.9703 99.6973C63.3692 108.894 58.9527 121.71 58.9102 136.525V136.551C58.9101 141.258 58.9101 149.202 64.5273 157.928C66.1946 154.18 68.1496 150.596 70.4193 147.191C77.9108 135.954 88.6867 126.892 103.373 120.364C105.392 119.467 107.756 120.376 108.653 122.395C109.55 124.414 108.641 126.778 106.622 127.675C93.1833 133.648 83.6468 141.772 77.0757 151.629Z" fill="white"/>
</g>
<defs>
<clipPath id="clip0_3608_7943">
<rect width="180" height="180" fill="white"/>
</clipPath>
</defs>
</svg>
